<svg xmlns="http://www.w3.org/2000/svg" viewBox="0 0 200 200"><defs><style>.cls-1{fill:#ccc;}.cls-1,.cls-2{stroke:#000;stroke-miterlimit:10;}.cls-2{fill:#ffa615;}</style></defs><title>WeatherIcons</title><g id="cloudy"><path class="cls-1" d="M159.8,77.59c0-.22,0-.43,0-.65a33,33,0,0,0-66,0c0,.2,0,.4,0,.6H46.48a33,33,0,0,0-33,33h0a33,33,0,0,0,33,33H158a33,33,0,0,0,33-33h0A33,33,0,0,0,159.8,77.59Z"/><path class="cls-2" d="M42.48,73.54H89.87c0-.2,0-.4,0-.6a32.8,32.8,0,0,1,7.86-21.35,41.19,41.19,0,0,0-76.5,29.73A32.84,32.84,0,0,1,42.48,73.54Z"/></g></svg>