<svg xmlns="http://www.w3.org/2000/svg" viewBox="0 0 200 200"><defs><style>.cls-1{fill:#999;}.cls-1,.cls-2,.cls-3{stroke:#000;stroke-miterlimit:10;}.cls-2{fill:#29abe2;}.cls-3{fill:#ff0;}</style></defs><title>WeatherIcons</title><g id="lightning"><path class="cls-1" d="M159.8,47.59c0-.22,0-.43,0-.65a33,33,0,0,0-66,0c0,.2,0,.4,0,.6H46.48a33,33,0,0,0-33,33h0a33,33,0,0,0,33,33H158a33,33,0,0,0,33-33h0A33,33,0,0,0,159.8,47.59Z"/><rect class="cls-2" x="99.5" y="143.5" width="59" height="7" rx="3.5" transform="translate(-48.1 229.98) rotate(-73.84)"/><rect class="cls-2" x="55.5" y="143.5" width="59" height="7" rx="3.5" transform="translate(-79.85 187.72) rotate(-73.84)"/><rect class="cls-2" x="11.5" y="143.5" width="59" height="7" rx="3.5" transform="translate(-111.6 145.46) rotate(-73.84)"/><polygon class="cls-3" points="62.5 154.5 72.03 127.5 65.5 127.52 56.5 159.5 61.74 157.57 54.5 186.5 70.5 152.5 62.5 154.5"/><polygon class="cls-3" points="109.5 153.5 119.03 126.5 112.5 126.52 103.5 158.5 108.74 156.57 101.5 185.5 117.5 151.5 109.5 153.5"/><polygon class="cls-3" points="152.5 153.5 162.03 126.5 155.5 126.52 146.5 158.5 151.74 156.57 144.5 185.5 160.5 151.5 152.5 153.5"/></g></svg>