<svg xmlns="http://www.w3.org/2000/svg" viewBox="0 0 200 200"><defs><style>.cls-1{fill:#999;}.cls-1,.cls-2,.cls-3{stroke:#000;stroke-miterlimit:10;}.cls-2{fill:#b8d3ff;}.cls-3{fill:#29abe2;}</style></defs><title>WeatherIcons</title><g id="hail"><path class="cls-1" d="M157.8,47.59c0-.22,0-.43,0-.65a33,33,0,0,0-66,0c0,.2,0,.4,0,.6H44.48a33,33,0,0,0-33,33h0a33,33,0,0,0,33,33H156a33,33,0,0,0,33-33h0A33,33,0,0,0,157.8,47.59Z"/><polygon class="cls-2" points="45.88 119.43 39.68 121.02 36.41 126.52 38 132.72 43.51 135.99 49.71 134.4 52.97 128.9 51.38 122.69 45.88 119.43"/><polygon class="cls-2" points="68.88 146.43 62.68 148.02 59.41 153.52 61 159.72 66.5 162.99 72.71 161.4 75.97 155.9 74.38 149.69 68.88 146.43"/><polygon class="cls-2" points="29.88 174.43 23.68 176.02 20.41 181.52 22 187.72 27.5 190.99 33.71 189.4 36.97 183.9 35.38 177.69 29.88 174.43"/><rect class="cls-3" x="22.04" y="151.75" width="29.49" height="6.78" rx="3.39" transform="translate(-122.46 147.28) rotate(-73.84)"/><polygon class="cls-2" points="162.88 119.43 156.68 121.02 153.41 126.52 155 132.72 160.5 135.99 166.71 134.4 169.97 128.9 168.38 122.69 162.88 119.43"/><polygon class="cls-2" points="146.88 174.43 140.68 176.02 137.41 181.52 139 187.72 144.5 190.99 150.71 189.4 153.97 183.9 152.38 177.69 146.88 174.43"/><rect class="cls-3" x="139.04" y="151.75" width="29.49" height="6.78" rx="3.39" transform="translate(-38.03 259.66) rotate(-73.84)"/><rect class="cls-3" x="60.04" y="126.75" width="29.49" height="6.78" rx="3.39" transform="translate(-71.03 165.74) rotate(-73.84)"/><rect class="cls-3" x="46.04" y="175.75" width="29.49" height="6.78" rx="3.39" transform="translate(-128.19 187.65) rotate(-73.84)"/><polygon class="cls-2" points="104.88 120.43 98.68 122.02 95.41 127.52 97 133.72 102.5 136.99 108.71 135.4 111.97 129.9 110.38 123.69 104.88 120.43"/><polygon class="cls-2" points="127.88 147.43 121.68 149.02 118.41 154.52 120 160.72 125.5 163.99 131.71 162.4 134.97 156.9 133.38 150.69 127.88 147.43"/><polygon class="cls-2" points="88.88 175.43 82.68 177.02 79.41 182.52 81 188.72 86.5 191.99 92.71 190.4 95.97 184.9 94.38 178.69 88.88 175.43"/><rect class="cls-3" x="81.04" y="152.75" width="29.49" height="6.78" rx="3.39" transform="translate(-80.85 204.67) rotate(-73.84)"/><rect class="cls-3" x="119.04" y="127.75" width="29.49" height="6.78" rx="3.39" transform="translate(-29.41 223.13) rotate(-73.84)"/><rect class="cls-3" x="105.04" y="176.75" width="29.49" height="6.78" rx="3.39" transform="translate(-86.58 245.04) rotate(-73.84)"/></g></svg>