<svg xmlns="http://www.w3.org/2000/svg" viewBox="0 0 200 200"><defs><style>.cls-1{fill:#ff0;}.cls-1,.cls-2,.cls-3,.cls-4,.cls-5{stroke:#000;stroke-miterlimit:10;}.cls-2{fill:#ff8b15;}.cls-3{fill:#666;}.cls-5{fill:none;}</style></defs><title>WeatherIcons</title><g id="meteor"><path class="cls-1" d="M119.57,25.6,23.49,102.76A47.79,47.79,0,0,0,16.14,170h0a47.8,47.8,0,0,0,67.2,7.34l96.08-77.15c18.86-17,30.1-29.09-13.82-17.22,49.86-46,41.49-46.89-15.43-19.21C188.37,4.53,175.6,7.84,135.6,45.56,159.74,3.43,146.3,6.51,119.57,25.6Z"/><path class="cls-2" d="M108.24,42.9,25.8,109.09a41,41,0,0,0-6.3,57.66h0A41,41,0,0,0,77.15,173l82.44-66.19c16.18-14.57,25.82-25-11.86-14.78,42.78-39.47,35.6-40.23-13.24-16.48C167.27,24.82,156.31,27.65,122,60,142.7,23.88,131.18,26.52,108.24,42.9Z"/><path class="cls-3" d="M77.4,133.47a9.73,9.73,0,0,1,3.88-7.77,35.24,35.24,0,0,0-18.4-16.56,11.61,11.61,0,0,1-23.18-.84,35.24,35.24,0,0,0-20.33,16.5,3.85,3.85,0,0,1-2.23,7,4.05,4.05,0,0,1-.7-.07,35.2,35.2,0,0,0,11.61,37.53,4,4,0,1,1,6.52,4.17A35.15,35.15,0,0,0,85.22,143,9.73,9.73,0,0,1,77.4,133.47Z"/><circle class="cls-3" cx="35.72" cy="127.71" r="3.97"/><circle class="cls-4" cx="33.93" cy="151.61" r="9.73"/><circle class="cls-4" cx="59.8" cy="131.79" r="3.86"/><circle class="cls-5" cx="64.35" cy="156.24" r="11.62"/></g></svg>