<svg xmlns="http://www.w3.org/2000/svg" viewBox="0 0 200 200"><defs><style>.cls-1{fill:#ffe15f;}.cls-1,.cls-2,.cls-3{stroke:#000;stroke-miterlimit:10;}.cls-2{fill:#e6e6e6;}.cls-3{fill:#ffa615;}</style></defs><title>WeatherIcons</title><g id="part-sunny"><path class="cls-1" d="M56.05,24.64,65.34,8.45l9.38,16.14C68.71,23,62.45,23.31,56.05,24.64Z"/><path class="cls-1" d="M90.76,31l18-4.87-4.78,18C100.85,38.81,96.23,34.59,90.76,31Z"/><path class="cls-1" d="M20.64,79.4,4.45,70.11l16.14-9.37C19,66.75,19.31,73,20.64,79.4Z"/><path class="cls-1" d="M27,44.69l-4.87-18,18,4.79C34.81,34.6,30.59,39.22,27,44.69Z"/><path class="cls-2" d="M164.8,77.59c0-.22,0-.43,0-.65a33,33,0,0,0-66,0c0,.2,0,.4,0,.6H51.48a33,33,0,0,0-33,33h0a33,33,0,0,0,33,33H163a33,33,0,0,0,33-33h0A33,33,0,0,0,164.8,77.59Z"/><path class="cls-3" d="M47.48,73.54H94.87c0-.2,0-.4,0-.6a32.8,32.8,0,0,1,7.86-21.35,41.19,41.19,0,0,0-76.5,29.73A32.84,32.84,0,0,1,47.48,73.54Z"/></g></svg>