<svg xmlns="http://www.w3.org/2000/svg" viewBox="0 0 200 200"><defs><style>.cls-1{fill:#999;}.cls-1,.cls-2{stroke:#000;stroke-miterlimit:10;}.cls-2{fill:#29abe2;}</style></defs><title>WeatherIcons</title><g id="rain"><path class="cls-1" d="M160.8,53.59c0-.22,0-.43,0-.65a33,33,0,0,0-66,0c0,.2,0,.4,0,.6H47.48a33,33,0,0,0-33,33h0a33,33,0,0,0,33,33H159a33,33,0,0,0,33-33h0A33,33,0,0,0,160.8,53.59Z"/><rect class="cls-2" x="122.5" y="157.5" width="59" height="7" rx="3.5" transform="translate(-44.95 262.17) rotate(-73.84)"/><rect class="cls-2" x="100.5" y="149.5" width="59" height="7" rx="3.5" transform="translate(-53.14 235.27) rotate(-73.84)"/><rect class="cls-2" x="78.5" y="157.5" width="59" height="7" rx="3.5" transform="translate(-76.7 219.91) rotate(-73.84)"/><rect class="cls-2" x="56.5" y="149.5" width="59" height="7" rx="3.5" transform="translate(-84.89 193.01) rotate(-73.84)"/><rect class="cls-2" x="34.5" y="157.5" width="59" height="7" rx="3.5" transform="translate(-108.45 177.65) rotate(-73.84)"/><rect class="cls-2" x="12.5" y="149.5" width="59" height="7" rx="3.5" transform="translate(-116.64 150.75) rotate(-73.84)"/></g></svg>