<svg xmlns="http://www.w3.org/2000/svg" viewBox="0 0 200 200"><defs><style>.cls-1{fill:#999;}.cls-1,.cls-2{stroke:#000;stroke-miterlimit:10;}.cls-2{fill:#fff;}</style></defs><title>WeatherIcons</title><g id="snow"><path class="cls-1" d="M159.8,48.59c0-.22,0-.43,0-.65a33,33,0,0,0-66,0c0,.2,0,.4,0,.6H46.48a33,33,0,0,0-33,33h0a33,33,0,0,0,33,33H158a33,33,0,0,0,33-33h0A33,33,0,0,0,159.8,48.59Z"/><polygon class="cls-2" points="34.5 159.66 36.57 165.49 42.17 162.83 39.51 168.43 45.34 170.5 39.51 172.57 42.17 178.17 36.57 175.51 34.5 181.34 32.43 175.51 26.83 178.17 29.49 172.57 23.66 170.5 29.49 168.43 26.83 162.83 32.43 165.49 34.5 159.66"/><polygon class="cls-2" points="47.5 116.66 49.57 122.49 55.17 119.83 52.51 125.43 58.34 127.5 52.51 129.57 55.17 135.17 49.57 132.51 47.5 138.34 45.43 132.51 39.83 135.17 42.49 129.57 36.66 127.5 42.49 125.43 39.83 119.83 45.43 122.49 47.5 116.66"/><polygon class="cls-2" points="77.5 159.66 79.57 165.49 85.17 162.83 82.51 168.43 88.34 170.5 82.51 172.57 85.17 178.17 79.57 175.51 77.5 181.34 75.43 175.51 69.83 178.17 72.49 172.57 66.66 170.5 72.49 168.43 69.83 162.83 75.43 165.49 77.5 159.66"/><polygon class="cls-2" points="90.5 116.66 92.57 122.49 98.17 119.83 95.51 125.43 101.34 127.5 95.51 129.57 98.17 135.17 92.57 132.51 90.5 138.34 88.43 132.51 82.83 135.17 85.49 129.57 79.66 127.5 85.49 125.43 82.83 119.83 88.43 122.49 90.5 116.66"/><polygon class="cls-2" points="120.5 159.66 122.57 165.49 128.17 162.83 125.51 168.43 131.34 170.5 125.51 172.57 128.17 178.17 122.57 175.51 120.5 181.34 118.43 175.51 112.83 178.17 115.49 172.57 109.66 170.5 115.49 168.43 112.83 162.83 118.43 165.49 120.5 159.66"/><polygon class="cls-2" points="160.5 159.66 162.57 165.49 168.17 162.83 165.51 168.43 171.34 170.5 165.51 172.57 168.17 178.17 162.57 175.51 160.5 181.34 158.43 175.51 152.83 178.17 155.49 172.57 149.66 170.5 155.49 168.43 152.83 162.83 158.43 165.49 160.5 159.66"/><polygon class="cls-2" points="133.5 116.66 135.57 122.49 141.17 119.83 138.51 125.43 144.34 127.5 138.51 129.57 141.17 135.17 135.57 132.51 133.5 138.34 131.43 132.51 125.83 135.17 128.49 129.57 122.66 127.5 128.49 125.43 125.83 119.83 131.43 122.49 133.5 116.66"/></g></svg>