<svg id="sunny" xmlns="http://www.w3.org/2000/svg" viewBox="0 0 200 200"><defs><style>.cls-1{fill:#ffa615;}.cls-1,.cls-2{stroke:#000;stroke-miterlimit:10;}.cls-2{fill:#ffe15f;}</style></defs><title>WeatherIcons</title><circle class="cls-1" cx="101.5" cy="101.5" r="57.5"/><path class="cls-2" d="M88,38.56,101,16l13.09,22.54C105.66,36.3,96.92,36.69,88,38.56Z"/><path class="cls-2" d="M136.45,47.44l25.16-6.81-6.68,25.19C150.54,58.34,144.09,52.44,136.45,47.44Z"/><path class="cls-2" d="M164.44,88l22.61,13-22.54,13.09C166.7,105.66,166.31,96.92,164.44,88Z"/><path class="cls-2" d="M155.56,136.45l6.81,25.16-25.19-6.68C144.66,150.54,150.56,144.09,155.56,136.45Z"/><path class="cls-2" d="M115,164.44l-13,22.61L89,164.51C97.34,166.7,106.08,166.31,115,164.44Z"/><path class="cls-2" d="M66.55,155.56l-25.16,6.81,6.68-25.19C52.46,144.66,58.91,150.56,66.55,155.56Z"/><path class="cls-2" d="M38.56,115,16,102,38.49,89C36.3,97.34,36.69,106.08,38.56,115Z"/><path class="cls-2" d="M47.44,66.55,40.63,41.39l25.19,6.68C58.34,52.46,52.44,58.91,47.44,66.55Z"/></svg>